<?xml version="1.0" encoding="utf-8" standalone="no"?>
<!DOCTYPE svg PUBLIC "-//W3C//DTD SVG 1.1//EN"
  "http://www.w3.org/Graphics/SVG/1.1/DTD/svg11.dtd">
<svg xmlns:xlink="http://www.w3.org/1999/xlink" width="720pt" height="432pt" viewBox="0 0 720 432" xmlns="http://www.w3.org/2000/svg" version="1.1">
 <metadata>
  <rdf:RDF xmlns:dc="http://purl.org/dc/elements/1.1/" xmlns:cc="http://creativecommons.org/ns#" xmlns:rdf="http://www.w3.org/1999/02/22-rdf-syntax-ns#">
   <cc:Work>
    <dc:type rdf:resource="http://purl.org/dc/dcmitype/StillImage"/>
    <dc:date>2024-09-25T17:30:36.821401</dc:date>
    <dc:format>image/svg+xml</dc:format>
    <dc:creator>
     <cc:Agent>
      <dc:title>Matplotlib v3.9.0, https://matplotlib.org/</dc:title>
     </cc:Agent>
    </dc:creator>
   </cc:Work>
  </rdf:RDF>
 </metadata>
 <defs>
  <style type="text/css">*{stroke-linejoin: round; stroke-linecap: butt}</style>
 </defs>
 <g id="figure_1">
  <g id="patch_1">
   <path d="M 0 432 
L 720 432 
L 720 0 
L 0 0 
z
" style="fill: #ffffff"/>
  </g>
  <g id="axes_1">
   <g id="patch_2">
    <path d="M 62.3 390.04 
L 709.2 390.04 
L 709.2 12.946263 
L 62.3 12.946263 
z
" style="fill: #ffffff"/>
   </g>
   <g id="matplotlib.axis_1">
    <g id="xtick_1">
     <g id="line2d_1">
      <defs>
       <path id="m8a249363c4" d="M 0 0 
L 0 3.5 
" style="stroke: #000000; stroke-width: 0.8"/>
      </defs>
      <g>
       <use xlink:href="#m8a249363c4" x="90.230633" y="390.04" style="stroke: #000000; stroke-width: 0.8"/>
      </g>
     </g>
     <g id="text_1">
      <!-- 0 -->
      <g transform="translate(87.049383 404.638438) scale(0.1 -0.1)">
       <defs>
        <path id="DejaVuSans-30" d="M 2034 4250 
Q 1547 4250 1301 3770 
Q 1056 3291 1056 2328 
Q 1056 1369 1301 889 
Q 1547 409 2034 409 
Q 2525 409 2770 889 
Q 3016 1369 3016 2328 
Q 3016 3291 2770 3770 
Q 2525 4250 2034 4250 
z
M 2034 4750 
Q 2819 4750 3233 4129 
Q 3647 3509 3647 2328 
Q 3647 1150 3233 529 
Q 2819 -91 2034 -91 
Q 1250 -91 836 529 
Q 422 1150 422 2328 
Q 422 3509 836 4129 
Q 1250 4750 2034 4750 
z
" transform="scale(0.015625)"/>
       </defs>
       <use xlink:href="#DejaVuSans-30"/>
      </g>
     </g>
    </g>
    <g id="xtick_2">
     <g id="line2d_2">
      <g>
       <use xlink:href="#m8a249363c4" x="163.926236" y="390.04" style="stroke: #000000; stroke-width: 0.8"/>
      </g>
     </g>
     <g id="text_2">
      <!-- 10000 -->
      <g transform="translate(148.019986 404.638438) scale(0.1 -0.1)">
       <defs>
        <path id="DejaVuSans-31" d="M 794 531 
L 1825 531 
L 1825 4091 
L 703 3866 
L 703 4441 
L 1819 4666 
L 2450 4666 
L 2450 531 
L 3481 531 
L 3481 0 
L 794 0 
L 794 531 
z
" transform="scale(0.015625)"/>
       </defs>
       <use xlink:href="#DejaVuSans-31"/>
       <use xlink:href="#DejaVuSans-30" x="63.623047"/>
       <use xlink:href="#DejaVuSans-30" x="127.246094"/>
       <use xlink:href="#DejaVuSans-30" x="190.869141"/>
       <use xlink:href="#DejaVuSans-30" x="254.492188"/>
      </g>
     </g>
    </g>
    <g id="xtick_3">
     <g id="line2d_3">
      <g>
       <use xlink:href="#m8a249363c4" x="237.621839" y="390.04" style="stroke: #000000; stroke-width: 0.8"/>
      </g>
     </g>
     <g id="text_3">
      <!-- 20000 -->
      <g transform="translate(221.715589 404.638438) scale(0.1 -0.1)">
       <defs>
        <path id="DejaVuSans-32" d="M 1228 531 
L 3431 531 
L 3431 0 
L 469 0 
L 469 531 
Q 828 903 1448 1529 
Q 2069 2156 2228 2338 
Q 2531 2678 2651 2914 
Q 2772 3150 2772 3378 
Q 2772 3750 2511 3984 
Q 2250 4219 1831 4219 
Q 1534 4219 1204 4116 
Q 875 4013 500 3803 
L 500 4441 
Q 881 4594 1212 4672 
Q 1544 4750 1819 4750 
Q 2544 4750 2975 4387 
Q 3406 4025 3406 3419 
Q 3406 3131 3298 2873 
Q 3191 2616 2906 2266 
Q 2828 2175 2409 1742 
Q 1991 1309 1228 531 
z
" transform="scale(0.015625)"/>
       </defs>
       <use xlink:href="#DejaVuSans-32"/>
       <use xlink:href="#DejaVuSans-30" x="63.623047"/>
       <use xlink:href="#DejaVuSans-30" x="127.246094"/>
       <use xlink:href="#DejaVuSans-30" x="190.869141"/>
       <use xlink:href="#DejaVuSans-30" x="254.492188"/>
      </g>
     </g>
    </g>
    <g id="xtick_4">
     <g id="line2d_4">
      <g>
       <use xlink:href="#m8a249363c4" x="311.317441" y="390.04" style="stroke: #000000; stroke-width: 0.8"/>
      </g>
     </g>
     <g id="text_4">
      <!-- 30000 -->
      <g transform="translate(295.411191 404.638438) scale(0.1 -0.1)">
       <defs>
        <path id="DejaVuSans-33" d="M 2597 2516 
Q 3050 2419 3304 2112 
Q 3559 1806 3559 1356 
Q 3559 666 3084 287 
Q 2609 -91 1734 -91 
Q 1441 -91 1130 -33 
Q 819 25 488 141 
L 488 750 
Q 750 597 1062 519 
Q 1375 441 1716 441 
Q 2309 441 2620 675 
Q 2931 909 2931 1356 
Q 2931 1769 2642 2001 
Q 2353 2234 1838 2234 
L 1294 2234 
L 1294 2753 
L 1863 2753 
Q 2328 2753 2575 2939 
Q 2822 3125 2822 3475 
Q 2822 3834 2567 4026 
Q 2313 4219 1838 4219 
Q 1578 4219 1281 4162 
Q 984 4106 628 3988 
L 628 4550 
Q 988 4650 1302 4700 
Q 1616 4750 1894 4750 
Q 2613 4750 3031 4423 
Q 3450 4097 3450 3541 
Q 3450 3153 3228 2886 
Q 3006 2619 2597 2516 
z
" transform="scale(0.015625)"/>
       </defs>
       <use xlink:href="#DejaVuSans-33"/>
       <use xlink:href="#DejaVuSans-30" x="63.623047"/>
       <use xlink:href="#DejaVuSans-30" x="127.246094"/>
       <use xlink:href="#DejaVuSans-30" x="190.869141"/>
       <use xlink:href="#DejaVuSans-30" x="254.492188"/>
      </g>
     </g>
    </g>
    <g id="xtick_5">
     <g id="line2d_5">
      <g>
       <use xlink:href="#m8a249363c4" x="385.013044" y="390.04" style="stroke: #000000; stroke-width: 0.8"/>
      </g>
     </g>
     <g id="text_5">
      <!-- 40000 -->
      <g transform="translate(369.106794 404.638438) scale(0.1 -0.1)">
       <defs>
        <path id="DejaVuSans-34" d="M 2419 4116 
L 825 1625 
L 2419 1625 
L 2419 4116 
z
M 2253 4666 
L 3047 4666 
L 3047 1625 
L 3713 1625 
L 3713 1100 
L 3047 1100 
L 3047 0 
L 2419 0 
L 2419 1100 
L 313 1100 
L 313 1709 
L 2253 4666 
z
" transform="scale(0.015625)"/>
       </defs>
       <use xlink:href="#DejaVuSans-34"/>
       <use xlink:href="#DejaVuSans-30" x="63.623047"/>
       <use xlink:href="#DejaVuSans-30" x="127.246094"/>
       <use xlink:href="#DejaVuSans-30" x="190.869141"/>
       <use xlink:href="#DejaVuSans-30" x="254.492188"/>
      </g>
     </g>
    </g>
    <g id="xtick_6">
     <g id="line2d_6">
      <g>
       <use xlink:href="#m8a249363c4" x="458.708647" y="390.04" style="stroke: #000000; stroke-width: 0.8"/>
      </g>
     </g>
     <g id="text_6">
      <!-- 50000 -->
      <g transform="translate(442.802397 404.638438) scale(0.1 -0.1)">
       <defs>
        <path id="DejaVuSans-35" d="M 691 4666 
L 3169 4666 
L 3169 4134 
L 1269 4134 
L 1269 2991 
Q 1406 3038 1543 3061 
Q 1681 3084 1819 3084 
Q 2600 3084 3056 2656 
Q 3513 2228 3513 1497 
Q 3513 744 3044 326 
Q 2575 -91 1722 -91 
Q 1428 -91 1123 -41 
Q 819 9 494 109 
L 494 744 
Q 775 591 1075 516 
Q 1375 441 1709 441 
Q 2250 441 2565 725 
Q 2881 1009 2881 1497 
Q 2881 1984 2565 2268 
Q 2250 2553 1709 2553 
Q 1456 2553 1204 2497 
Q 953 2441 691 2322 
L 691 4666 
z
" transform="scale(0.015625)"/>
       </defs>
       <use xlink:href="#DejaVuSans-35"/>
       <use xlink:href="#DejaVuSans-30" x="63.623047"/>
       <use xlink:href="#DejaVuSans-30" x="127.246094"/>
       <use xlink:href="#DejaVuSans-30" x="190.869141"/>
       <use xlink:href="#DejaVuSans-30" x="254.492188"/>
      </g>
     </g>
    </g>
    <g id="xtick_7">
     <g id="line2d_7">
      <g>
       <use xlink:href="#m8a249363c4" x="532.404249" y="390.04" style="stroke: #000000; stroke-width: 0.8"/>
      </g>
     </g>
     <g id="text_7">
      <!-- 60000 -->
      <g transform="translate(516.497999 404.638438) scale(0.1 -0.1)">
       <defs>
        <path id="DejaVuSans-36" d="M 2113 2584 
Q 1688 2584 1439 2293 
Q 1191 2003 1191 1497 
Q 1191 994 1439 701 
Q 1688 409 2113 409 
Q 2538 409 2786 701 
Q 3034 994 3034 1497 
Q 3034 2003 2786 2293 
Q 2538 2584 2113 2584 
z
M 3366 4563 
L 3366 3988 
Q 3128 4100 2886 4159 
Q 2644 4219 2406 4219 
Q 1781 4219 1451 3797 
Q 1122 3375 1075 2522 
Q 1259 2794 1537 2939 
Q 1816 3084 2150 3084 
Q 2853 3084 3261 2657 
Q 3669 2231 3669 1497 
Q 3669 778 3244 343 
Q 2819 -91 2113 -91 
Q 1303 -91 875 529 
Q 447 1150 447 2328 
Q 447 3434 972 4092 
Q 1497 4750 2381 4750 
Q 2619 4750 2861 4703 
Q 3103 4656 3366 4563 
z
" transform="scale(0.015625)"/>
       </defs>
       <use xlink:href="#DejaVuSans-36"/>
       <use xlink:href="#DejaVuSans-30" x="63.623047"/>
       <use xlink:href="#DejaVuSans-30" x="127.246094"/>
       <use xlink:href="#DejaVuSans-30" x="190.869141"/>
       <use xlink:href="#DejaVuSans-30" x="254.492188"/>
      </g>
     </g>
    </g>
    <g id="xtick_8">
     <g id="line2d_8">
      <g>
       <use xlink:href="#m8a249363c4" x="606.099852" y="390.04" style="stroke: #000000; stroke-width: 0.8"/>
      </g>
     </g>
     <g id="text_8">
      <!-- 70000 -->
      <g transform="translate(590.193602 404.638438) scale(0.1 -0.1)">
       <defs>
        <path id="DejaVuSans-37" d="M 525 4666 
L 3525 4666 
L 3525 4397 
L 1831 0 
L 1172 0 
L 2766 4134 
L 525 4134 
L 525 4666 
z
" transform="scale(0.015625)"/>
       </defs>
       <use xlink:href="#DejaVuSans-37"/>
       <use xlink:href="#DejaVuSans-30" x="63.623047"/>
       <use xlink:href="#DejaVuSans-30" x="127.246094"/>
       <use xlink:href="#DejaVuSans-30" x="190.869141"/>
       <use xlink:href="#DejaVuSans-30" x="254.492188"/>
      </g>
     </g>
    </g>
    <g id="xtick_9">
     <g id="line2d_9">
      <g>
       <use xlink:href="#m8a249363c4" x="679.795455" y="390.04" style="stroke: #000000; stroke-width: 0.8"/>
      </g>
     </g>
     <g id="text_9">
      <!-- 80000 -->
      <g transform="translate(663.889205 404.638438) scale(0.1 -0.1)">
       <defs>
        <path id="DejaVuSans-38" d="M 2034 2216 
Q 1584 2216 1326 1975 
Q 1069 1734 1069 1313 
Q 1069 891 1326 650 
Q 1584 409 2034 409 
Q 2484 409 2743 651 
Q 3003 894 3003 1313 
Q 3003 1734 2745 1975 
Q 2488 2216 2034 2216 
z
M 1403 2484 
Q 997 2584 770 2862 
Q 544 3141 544 3541 
Q 544 4100 942 4425 
Q 1341 4750 2034 4750 
Q 2731 4750 3128 4425 
Q 3525 4100 3525 3541 
Q 3525 3141 3298 2862 
Q 3072 2584 2669 2484 
Q 3125 2378 3379 2068 
Q 3634 1759 3634 1313 
Q 3634 634 3220 271 
Q 2806 -91 2034 -91 
Q 1263 -91 848 271 
Q 434 634 434 1313 
Q 434 1759 690 2068 
Q 947 2378 1403 2484 
z
M 1172 3481 
Q 1172 3119 1398 2916 
Q 1625 2713 2034 2713 
Q 2441 2713 2670 2916 
Q 2900 3119 2900 3481 
Q 2900 3844 2670 4047 
Q 2441 4250 2034 4250 
Q 1625 4250 1398 4047 
Q 1172 3844 1172 3481 
z
" transform="scale(0.015625)"/>
       </defs>
       <use xlink:href="#DejaVuSans-38"/>
       <use xlink:href="#DejaVuSans-30" x="63.623047"/>
       <use xlink:href="#DejaVuSans-30" x="127.246094"/>
       <use xlink:href="#DejaVuSans-30" x="190.869141"/>
       <use xlink:href="#DejaVuSans-30" x="254.492188"/>
      </g>
     </g>
    </g>
    <g id="text_10">
     <!-- Episodes -->
     <g transform="translate(363.507812 418.316562) scale(0.1 -0.1)">
      <defs>
       <path id="DejaVuSans-45" d="M 628 4666 
L 3578 4666 
L 3578 4134 
L 1259 4134 
L 1259 2753 
L 3481 2753 
L 3481 2222 
L 1259 2222 
L 1259 531 
L 3634 531 
L 3634 0 
L 628 0 
L 628 4666 
z
" transform="scale(0.015625)"/>
       <path id="DejaVuSans-70" d="M 1159 525 
L 1159 -1331 
L 581 -1331 
L 581 3500 
L 1159 3500 
L 1159 2969 
Q 1341 3281 1617 3432 
Q 1894 3584 2278 3584 
Q 2916 3584 3314 3078 
Q 3713 2572 3713 1747 
Q 3713 922 3314 415 
Q 2916 -91 2278 -91 
Q 1894 -91 1617 61 
Q 1341 213 1159 525 
z
M 3116 1747 
Q 3116 2381 2855 2742 
Q 2594 3103 2138 3103 
Q 1681 3103 1420 2742 
Q 1159 2381 1159 1747 
Q 1159 1113 1420 752 
Q 1681 391 2138 391 
Q 2594 391 2855 752 
Q 3116 1113 3116 1747 
z
" transform="scale(0.015625)"/>
       <path id="DejaVuSans-69" d="M 603 3500 
L 1178 3500 
L 1178 0 
L 603 0 
L 603 3500 
z
M 603 4863 
L 1178 4863 
L 1178 4134 
L 603 4134 
L 603 4863 
z
" transform="scale(0.015625)"/>
       <path id="DejaVuSans-73" d="M 2834 3397 
L 2834 2853 
Q 2591 2978 2328 3040 
Q 2066 3103 1784 3103 
Q 1356 3103 1142 2972 
Q 928 2841 928 2578 
Q 928 2378 1081 2264 
Q 1234 2150 1697 2047 
L 1894 2003 
Q 2506 1872 2764 1633 
Q 3022 1394 3022 966 
Q 3022 478 2636 193 
Q 2250 -91 1575 -91 
Q 1294 -91 989 -36 
Q 684 19 347 128 
L 347 722 
Q 666 556 975 473 
Q 1284 391 1588 391 
Q 1994 391 2212 530 
Q 2431 669 2431 922 
Q 2431 1156 2273 1281 
Q 2116 1406 1581 1522 
L 1381 1569 
Q 847 1681 609 1914 
Q 372 2147 372 2553 
Q 372 3047 722 3315 
Q 1072 3584 1716 3584 
Q 2034 3584 2315 3537 
Q 2597 3491 2834 3397 
z
" transform="scale(0.015625)"/>
       <path id="DejaVuSans-6f" d="M 1959 3097 
Q 1497 3097 1228 2736 
Q 959 2375 959 1747 
Q 959 1119 1226 758 
Q 1494 397 1959 397 
Q 2419 397 2687 759 
Q 2956 1122 2956 1747 
Q 2956 2369 2687 2733 
Q 2419 3097 1959 3097 
z
M 1959 3584 
Q 2709 3584 3137 3096 
Q 3566 2609 3566 1747 
Q 3566 888 3137 398 
Q 2709 -91 1959 -91 
Q 1206 -91 779 398 
Q 353 888 353 1747 
Q 353 2609 779 3096 
Q 1206 3584 1959 3584 
z
" transform="scale(0.015625)"/>
       <path id="DejaVuSans-64" d="M 2906 2969 
L 2906 4863 
L 3481 4863 
L 3481 0 
L 2906 0 
L 2906 525 
Q 2725 213 2448 61 
Q 2172 -91 1784 -91 
Q 1150 -91 751 415 
Q 353 922 353 1747 
Q 353 2572 751 3078 
Q 1150 3584 1784 3584 
Q 2172 3584 2448 3432 
Q 2725 3281 2906 2969 
z
M 947 1747 
Q 947 1113 1208 752 
Q 1469 391 1925 391 
Q 2381 391 2643 752 
Q 2906 1113 2906 1747 
Q 2906 2381 2643 2742 
Q 2381 3103 1925 3103 
Q 1469 3103 1208 2742 
Q 947 2381 947 1747 
z
" transform="scale(0.015625)"/>
       <path id="DejaVuSans-65" d="M 3597 1894 
L 3597 1613 
L 953 1613 
Q 991 1019 1311 708 
Q 1631 397 2203 397 
Q 2534 397 2845 478 
Q 3156 559 3463 722 
L 3463 178 
Q 3153 47 2828 -22 
Q 2503 -91 2169 -91 
Q 1331 -91 842 396 
Q 353 884 353 1716 
Q 353 2575 817 3079 
Q 1281 3584 2069 3584 
Q 2775 3584 3186 3129 
Q 3597 2675 3597 1894 
z
M 3022 2063 
Q 3016 2534 2758 2815 
Q 2500 3097 2075 3097 
Q 1594 3097 1305 2825 
Q 1016 2553 972 2059 
L 3022 2063 
z
" transform="scale(0.015625)"/>
      </defs>
      <use xlink:href="#DejaVuSans-45"/>
      <use xlink:href="#DejaVuSans-70" x="63.183594"/>
      <use xlink:href="#DejaVuSans-69" x="126.660156"/>
      <use xlink:href="#DejaVuSans-73" x="154.443359"/>
      <use xlink:href="#DejaVuSans-6f" x="206.542969"/>
      <use xlink:href="#DejaVuSans-64" x="267.724609"/>
      <use xlink:href="#DejaVuSans-65" x="331.201172"/>
      <use xlink:href="#DejaVuSans-73" x="392.724609"/>
     </g>
    </g>
   </g>
   <g id="matplotlib.axis_2">
    <g id="ytick_1">
     <g id="line2d_10">
      <defs>
       <path id="mf69d1ee25d" d="M 0 0 
L -3.5 0 
" style="stroke: #000000; stroke-width: 0.8"/>
      </defs>
      <g>
       <use xlink:href="#mf69d1ee25d" x="62.3" y="368.056229" style="stroke: #000000; stroke-width: 0.8"/>
      </g>
     </g>
     <g id="text_11">
      <!-- −42.5 -->
      <g transform="translate(24.654688 371.855448) scale(0.1 -0.1)">
       <defs>
        <path id="DejaVuSans-2212" d="M 678 2272 
L 4684 2272 
L 4684 1741 
L 678 1741 
L 678 2272 
z
" transform="scale(0.015625)"/>
        <path id="DejaVuSans-2e" d="M 684 794 
L 1344 794 
L 1344 0 
L 684 0 
L 684 794 
z
" transform="scale(0.015625)"/>
       </defs>
       <use xlink:href="#DejaVuSans-2212"/>
       <use xlink:href="#DejaVuSans-34" x="83.789062"/>
       <use xlink:href="#DejaVuSans-32" x="147.412109"/>
       <use xlink:href="#DejaVuSans-2e" x="211.035156"/>
       <use xlink:href="#DejaVuSans-35" x="242.822266"/>
      </g>
     </g>
    </g>
    <g id="ytick_2">
     <g id="line2d_11">
      <g>
       <use xlink:href="#mf69d1ee25d" x="62.3" y="317.619966" style="stroke: #000000; stroke-width: 0.8"/>
      </g>
     </g>
     <g id="text_12">
      <!-- −40.0 -->
      <g transform="translate(24.654688 321.419185) scale(0.1 -0.1)">
       <use xlink:href="#DejaVuSans-2212"/>
       <use xlink:href="#DejaVuSans-34" x="83.789062"/>
       <use xlink:href="#DejaVuSans-30" x="147.412109"/>
       <use xlink:href="#DejaVuSans-2e" x="211.035156"/>
       <use xlink:href="#DejaVuSans-30" x="242.822266"/>
      </g>
     </g>
    </g>
    <g id="ytick_3">
     <g id="line2d_12">
      <g>
       <use xlink:href="#mf69d1ee25d" x="62.3" y="267.183703" style="stroke: #000000; stroke-width: 0.8"/>
      </g>
     </g>
     <g id="text_13">
      <!-- −37.5 -->
      <g transform="translate(24.654688 270.982921) scale(0.1 -0.1)">
       <use xlink:href="#DejaVuSans-2212"/>
       <use xlink:href="#DejaVuSans-33" x="83.789062"/>
       <use xlink:href="#DejaVuSans-37" x="147.412109"/>
       <use xlink:href="#DejaVuSans-2e" x="211.035156"/>
       <use xlink:href="#DejaVuSans-35" x="242.822266"/>
      </g>
     </g>
    </g>
    <g id="ytick_4">
     <g id="line2d_13">
      <g>
       <use xlink:href="#mf69d1ee25d" x="62.3" y="216.747439" style="stroke: #000000; stroke-width: 0.8"/>
      </g>
     </g>
     <g id="text_14">
      <!-- −35.0 -->
      <g transform="translate(24.654688 220.546658) scale(0.1 -0.1)">
       <use xlink:href="#DejaVuSans-2212"/>
       <use xlink:href="#DejaVuSans-33" x="83.789062"/>
       <use xlink:href="#DejaVuSans-35" x="147.412109"/>
       <use xlink:href="#DejaVuSans-2e" x="211.035156"/>
       <use xlink:href="#DejaVuSans-30" x="242.822266"/>
      </g>
     </g>
    </g>
    <g id="ytick_5">
     <g id="line2d_14">
      <g>
       <use xlink:href="#mf69d1ee25d" x="62.3" y="166.311176" style="stroke: #000000; stroke-width: 0.8"/>
      </g>
     </g>
     <g id="text_15">
      <!-- −32.5 -->
      <g transform="translate(24.654688 170.110395) scale(0.1 -0.1)">
       <use xlink:href="#DejaVuSans-2212"/>
       <use xlink:href="#DejaVuSans-33" x="83.789062"/>
       <use xlink:href="#DejaVuSans-32" x="147.412109"/>
       <use xlink:href="#DejaVuSans-2e" x="211.035156"/>
       <use xlink:href="#DejaVuSans-35" x="242.822266"/>
      </g>
     </g>
    </g>
    <g id="ytick_6">
     <g id="line2d_15">
      <g>
       <use xlink:href="#mf69d1ee25d" x="62.3" y="115.874913" style="stroke: #000000; stroke-width: 0.8"/>
      </g>
     </g>
     <g id="text_16">
      <!-- −30.0 -->
      <g transform="translate(24.654688 119.674132) scale(0.1 -0.1)">
       <use xlink:href="#DejaVuSans-2212"/>
       <use xlink:href="#DejaVuSans-33" x="83.789062"/>
       <use xlink:href="#DejaVuSans-30" x="147.412109"/>
       <use xlink:href="#DejaVuSans-2e" x="211.035156"/>
       <use xlink:href="#DejaVuSans-30" x="242.822266"/>
      </g>
     </g>
    </g>
    <g id="ytick_7">
     <g id="line2d_16">
      <g>
       <use xlink:href="#mf69d1ee25d" x="62.3" y="65.43865" style="stroke: #000000; stroke-width: 0.8"/>
      </g>
     </g>
     <g id="text_17">
      <!-- −27.5 -->
      <g transform="translate(24.654688 69.237868) scale(0.1 -0.1)">
       <use xlink:href="#DejaVuSans-2212"/>
       <use xlink:href="#DejaVuSans-32" x="83.789062"/>
       <use xlink:href="#DejaVuSans-37" x="147.412109"/>
       <use xlink:href="#DejaVuSans-2e" x="211.035156"/>
       <use xlink:href="#DejaVuSans-35" x="242.822266"/>
      </g>
     </g>
    </g>
    <g id="ytick_8">
     <g id="line2d_17">
      <g>
       <use xlink:href="#mf69d1ee25d" x="62.3" y="15.002386" style="stroke: #000000; stroke-width: 0.8"/>
      </g>
     </g>
     <g id="text_18">
      <!-- −25.0 -->
      <g transform="translate(24.654688 18.801605) scale(0.1 -0.1)">
       <use xlink:href="#DejaVuSans-2212"/>
       <use xlink:href="#DejaVuSans-32" x="83.789062"/>
       <use xlink:href="#DejaVuSans-35" x="147.412109"/>
       <use xlink:href="#DejaVuSans-2e" x="211.035156"/>
       <use xlink:href="#DejaVuSans-30" x="242.822266"/>
      </g>
     </g>
    </g>
    <g id="text_19">
     <!-- Mean Episodic Return -->
     <g transform="translate(18.575 255.585319) rotate(-90) scale(0.1 -0.1)">
      <defs>
       <path id="DejaVuSans-4d" d="M 628 4666 
L 1569 4666 
L 2759 1491 
L 3956 4666 
L 4897 4666 
L 4897 0 
L 4281 0 
L 4281 4097 
L 3078 897 
L 2444 897 
L 1241 4097 
L 1241 0 
L 628 0 
L 628 4666 
z
" transform="scale(0.015625)"/>
       <path id="DejaVuSans-61" d="M 2194 1759 
Q 1497 1759 1228 1600 
Q 959 1441 959 1056 
Q 959 750 1161 570 
Q 1363 391 1709 391 
Q 2188 391 2477 730 
Q 2766 1069 2766 1631 
L 2766 1759 
L 2194 1759 
z
M 3341 1997 
L 3341 0 
L 2766 0 
L 2766 531 
Q 2569 213 2275 61 
Q 1981 -91 1556 -91 
Q 1019 -91 701 211 
Q 384 513 384 1019 
Q 384 1609 779 1909 
Q 1175 2209 1959 2209 
L 2766 2209 
L 2766 2266 
Q 2766 2663 2505 2880 
Q 2244 3097 1772 3097 
Q 1472 3097 1187 3025 
Q 903 2953 641 2809 
L 641 3341 
Q 956 3463 1253 3523 
Q 1550 3584 1831 3584 
Q 2591 3584 2966 3190 
Q 3341 2797 3341 1997 
z
" transform="scale(0.015625)"/>
       <path id="DejaVuSans-6e" d="M 3513 2113 
L 3513 0 
L 2938 0 
L 2938 2094 
Q 2938 2591 2744 2837 
Q 2550 3084 2163 3084 
Q 1697 3084 1428 2787 
Q 1159 2491 1159 1978 
L 1159 0 
L 581 0 
L 581 3500 
L 1159 3500 
L 1159 2956 
Q 1366 3272 1645 3428 
Q 1925 3584 2291 3584 
Q 2894 3584 3203 3211 
Q 3513 2838 3513 2113 
z
" transform="scale(0.015625)"/>
       <path id="DejaVuSans-20" transform="scale(0.015625)"/>
       <path id="DejaVuSans-63" d="M 3122 3366 
L 3122 2828 
Q 2878 2963 2633 3030 
Q 2388 3097 2138 3097 
Q 1578 3097 1268 2742 
Q 959 2388 959 1747 
Q 959 1106 1268 751 
Q 1578 397 2138 397 
Q 2388 397 2633 464 
Q 2878 531 3122 666 
L 3122 134 
Q 2881 22 2623 -34 
Q 2366 -91 2075 -91 
Q 1284 -91 818 406 
Q 353 903 353 1747 
Q 353 2603 823 3093 
Q 1294 3584 2113 3584 
Q 2378 3584 2631 3529 
Q 2884 3475 3122 3366 
z
" transform="scale(0.015625)"/>
       <path id="DejaVuSans-52" d="M 2841 2188 
Q 3044 2119 3236 1894 
Q 3428 1669 3622 1275 
L 4263 0 
L 3584 0 
L 2988 1197 
Q 2756 1666 2539 1819 
Q 2322 1972 1947 1972 
L 1259 1972 
L 1259 0 
L 628 0 
L 628 4666 
L 2053 4666 
Q 2853 4666 3247 4331 
Q 3641 3997 3641 3322 
Q 3641 2881 3436 2590 
Q 3231 2300 2841 2188 
z
M 1259 4147 
L 1259 2491 
L 2053 2491 
Q 2509 2491 2742 2702 
Q 2975 2913 2975 3322 
Q 2975 3731 2742 3939 
Q 2509 4147 2053 4147 
L 1259 4147 
z
" transform="scale(0.015625)"/>
       <path id="DejaVuSans-74" d="M 1172 4494 
L 1172 3500 
L 2356 3500 
L 2356 3053 
L 1172 3053 
L 1172 1153 
Q 1172 725 1289 603 
Q 1406 481 1766 481 
L 2356 481 
L 2356 0 
L 1766 0 
Q 1100 0 847 248 
Q 594 497 594 1153 
L 594 3053 
L 172 3053 
L 172 3500 
L 594 3500 
L 594 4494 
L 1172 4494 
z
" transform="scale(0.015625)"/>
       <path id="DejaVuSans-75" d="M 544 1381 
L 544 3500 
L 1119 3500 
L 1119 1403 
Q 1119 906 1312 657 
Q 1506 409 1894 409 
Q 2359 409 2629 706 
Q 2900 1003 2900 1516 
L 2900 3500 
L 3475 3500 
L 3475 0 
L 2900 0 
L 2900 538 
Q 2691 219 2414 64 
Q 2138 -91 1772 -91 
Q 1169 -91 856 284 
Q 544 659 544 1381 
z
M 1991 3584 
L 1991 3584 
z
" transform="scale(0.015625)"/>
       <path id="DejaVuSans-72" d="M 2631 2963 
Q 2534 3019 2420 3045 
Q 2306 3072 2169 3072 
Q 1681 3072 1420 2755 
Q 1159 2438 1159 1844 
L 1159 0 
L 581 0 
L 581 3500 
L 1159 3500 
L 1159 2956 
Q 1341 3275 1631 3429 
Q 1922 3584 2338 3584 
Q 2397 3584 2469 3576 
Q 2541 3569 2628 3553 
L 2631 2963 
z
" transform="scale(0.015625)"/>
      </defs>
      <use xlink:href="#DejaVuSans-4d"/>
      <use xlink:href="#DejaVuSans-65" x="86.279297"/>
      <use xlink:href="#DejaVuSans-61" x="147.802734"/>
      <use xlink:href="#DejaVuSans-6e" x="209.082031"/>
      <use xlink:href="#DejaVuSans-20" x="272.460938"/>
      <use xlink:href="#DejaVuSans-45" x="304.248047"/>
      <use xlink:href="#DejaVuSans-70" x="367.431641"/>
      <use xlink:href="#DejaVuSans-69" x="430.908203"/>
      <use xlink:href="#DejaVuSans-73" x="458.691406"/>
      <use xlink:href="#DejaVuSans-6f" x="510.791016"/>
      <use xlink:href="#DejaVuSans-64" x="571.972656"/>
      <use xlink:href="#DejaVuSans-69" x="635.449219"/>
      <use xlink:href="#DejaVuSans-63" x="663.232422"/>
      <use xlink:href="#DejaVuSans-20" x="718.212891"/>
      <use xlink:href="#DejaVuSans-52" x="750"/>
      <use xlink:href="#DejaVuSans-65" x="814.982422"/>
      <use xlink:href="#DejaVuSans-74" x="876.505859"/>
      <use xlink:href="#DejaVuSans-75" x="915.714844"/>
      <use xlink:href="#DejaVuSans-72" x="979.09375"/>
      <use xlink:href="#DejaVuSans-6e" x="1018.457031"/>
     </g>
    </g>
   </g>
   <g id="line2d_18">
    <path d="M 93.178458 372.899376 
L 94.65237 351.028056 
L 96.126282 331.04295 
L 97.600194 313.691095 
L 99.074106 292.616399 
L 102.02193 259.690609 
L 103.495842 243.318758 
L 104.969754 229.973302 
L 106.443666 218.114124 
L 109.39149 200.555949 
L 113.813226 174.91411 
L 115.287138 168.837741 
L 118.234962 154.602568 
L 119.708874 149.366957 
L 121.182787 142.660702 
L 122.656699 137.101621 
L 127.078435 123.900472 
L 128.552347 118.668135 
L 130.026259 114.82583 
L 132.974083 107.966876 
L 134.447995 105.941348 
L 137.395819 100.536322 
L 138.869731 98.690033 
L 141.817555 93.929293 
L 143.291467 91.876019 
L 144.765379 89.178924 
L 147.713203 84.403286 
L 149.187116 82.899383 
L 150.661028 81.008052 
L 152.13494 79.800183 
L 153.608852 77.354529 
L 155.082764 75.728036 
L 156.556676 75.037861 
L 158.030588 73.337019 
L 160.978412 69.314987 
L 162.452324 67.016374 
L 163.926236 64.25893 
L 165.400148 62.858656 
L 166.87406 63.378919 
L 169.821884 61.397453 
L 171.295796 59.88802 
L 172.769708 57.929724 
L 174.24362 57.420937 
L 175.717532 56.254905 
L 177.191445 54.49372 
L 178.665357 53.603174 
L 180.139269 51.558936 
L 181.613181 50.240475 
L 183.087093 51.233001 
L 186.034917 47.633609 
L 190.456653 46.322276 
L 191.930565 44.290712 
L 193.404477 44.221097 
L 194.878389 43.348965 
L 196.352301 42.962783 
L 197.826213 41.707284 
L 199.300125 41.523187 
L 200.774037 40.98944 
L 202.247949 39.943813 
L 203.721861 38.637234 
L 205.195774 37.90084 
L 208.143598 36.151393 
L 209.61751 36.302198 
L 211.091422 35.456453 
L 212.565334 35.722749 
L 215.513158 34.899795 
L 216.98707 34.086197 
L 218.460982 34.634796 
L 219.934894 34.195141 
L 221.408806 34.623582 
L 222.882718 34.616067 
L 224.35663 35.000358 
L 225.830542 33.969039 
L 227.304454 33.471919 
L 228.778366 32.284444 
L 230.252278 32.337494 
L 231.72619 33.067463 
L 234.674015 34.049138 
L 236.147927 33.030115 
L 237.621839 34.451123 
L 239.095751 35.297051 
L 240.569663 34.819626 
L 242.043575 35.667753 
L 243.517487 35.365852 
L 244.991399 35.54508 
L 246.465311 35.277467 
L 249.413135 36.659426 
L 250.887047 35.776321 
L 252.360959 35.275125 
L 253.834871 36.038715 
L 255.308783 35.30874 
L 256.782695 34.407503 
L 258.256607 34.529341 
L 259.730519 33.550006 
L 262.678344 33.444299 
L 264.152256 33.551939 
L 265.626168 34.008602 
L 267.10008 33.795682 
L 268.573992 34.141249 
L 270.047904 33.736589 
L 271.521816 33.894919 
L 274.46964 33.892647 
L 277.417464 33.354429 
L 278.891376 33.377161 
L 280.365288 33.130066 
L 281.8392 33.767589 
L 283.313112 33.971388 
L 284.787024 33.610425 
L 287.734848 34.06395 
L 289.208761 34.065438 
L 290.682673 34.459029 
L 295.104409 34.401842 
L 296.578321 33.198669 
L 298.052233 33.297402 
L 299.526145 32.718533 
L 301.000057 33.050695 
L 302.473969 33.015454 
L 303.947881 33.587475 
L 306.895705 34.381046 
L 311.317441 34.939339 
L 312.791353 34.709001 
L 314.265265 34.931165 
L 315.739177 34.17018 
L 317.21309 34.343536 
L 318.687002 34.17419 
L 320.160914 34.243022 
L 321.634826 33.862018 
L 323.108738 33.300573 
L 324.58265 33.666963 
L 326.056562 34.204693 
L 327.530474 34.999621 
L 329.004386 35.402697 
L 330.478298 35.685392 
L 331.95221 35.605201 
L 333.426122 34.966106 
L 334.900034 34.919376 
L 336.373946 35.486865 
L 337.847858 35.864158 
L 339.32177 35.942397 
L 340.795682 35.50077 
L 342.269594 35.743255 
L 343.743506 36.413075 
L 345.217419 35.975269 
L 346.691331 35.90691 
L 348.165243 37.034894 
L 349.639155 36.090422 
L 351.113067 35.946586 
L 352.586979 35.946422 
L 354.060891 36.787594 
L 355.534803 36.353105 
L 357.008715 36.653617 
L 358.482627 36.638257 
L 359.956539 36.022271 
L 361.430451 36.221622 
L 362.904363 35.379567 
L 364.378275 35.273478 
L 365.852187 35.810772 
L 367.326099 35.855177 
L 368.800011 35.398479 
L 370.273923 35.423962 
L 371.747835 35.705535 
L 373.221748 36.811548 
L 374.69566 37.264437 
L 376.169572 37.548228 
L 377.643484 37.252424 
L 379.117396 36.614813 
L 382.06522 36.195943 
L 383.539132 37.303289 
L 385.013044 37.881617 
L 387.960868 37.911245 
L 389.43478 37.683089 
L 390.908692 37.978729 
L 392.382604 38.411433 
L 393.856516 38.558114 
L 395.330428 37.694896 
L 396.80434 37.605527 
L 398.278252 37.644713 
L 399.752165 37.45116 
L 401.226077 38.026214 
L 402.699989 37.907484 
L 405.647813 38.2469 
L 407.121725 38.655847 
L 408.595637 37.977918 
L 410.069549 37.586755 
L 411.543461 38.151324 
L 413.017373 37.645355 
L 414.491285 38.179126 
L 415.965197 38.210375 
L 417.439109 38.362355 
L 421.860845 36.53433 
L 423.334757 36.390517 
L 424.808669 36.032603 
L 429.230406 36.627119 
L 430.704318 36.198631 
L 432.17823 36.734787 
L 433.652142 36.171638 
L 436.599966 36.36811 
L 438.073878 37.138764 
L 439.54779 37.125633 
L 441.021702 37.275361 
L 442.495614 37.895305 
L 443.969526 38.862175 
L 445.443438 39.116284 
L 446.91735 38.638363 
L 449.865174 38.181538 
L 451.339086 37.646193 
L 452.812998 38.093904 
L 454.28691 38.036125 
L 455.760823 38.480018 
L 457.234735 38.414758 
L 458.708647 38.072805 
L 460.182559 38.7906 
L 461.656471 38.010919 
L 463.130383 39.14118 
L 464.604295 39.545328 
L 466.078207 40.218373 
L 469.026031 39.78311 
L 470.499943 38.997526 
L 471.973855 39.210045 
L 473.447767 38.887495 
L 474.921679 38.836398 
L 476.395591 39.073949 
L 477.869503 40.379872 
L 479.343415 39.722967 
L 480.817327 40.423874 
L 482.291239 39.972018 
L 483.765152 40.799707 
L 485.239064 41.144656 
L 486.712976 40.94276 
L 488.186888 41.422944 
L 489.6608 40.657268 
L 491.134712 40.819098 
L 492.608624 41.381409 
L 494.082536 40.164516 
L 497.03036 40.326894 
L 498.504272 39.981551 
L 499.978184 39.34665 
L 501.452096 39.809646 
L 502.926008 39.564351 
L 505.873832 40.166036 
L 507.347744 39.796387 
L 508.821656 39.824474 
L 510.295568 39.409855 
L 511.769481 39.898187 
L 513.243393 39.369847 
L 514.717305 39.563985 
L 516.191217 38.765424 
L 517.665129 39.718501 
L 519.139041 40.172818 
L 520.612953 40.082274 
L 522.086865 39.869436 
L 523.560777 39.994056 
L 525.034689 40.268615 
L 527.982513 41.321382 
L 529.456425 41.293743 
L 530.930337 40.712364 
L 532.404249 40.949431 
L 533.878161 41.339617 
L 535.352073 41.515621 
L 536.825985 40.930791 
L 538.299897 40.967515 
L 539.77381 40.445872 
L 541.247722 40.443962 
L 542.721634 39.689624 
L 544.195546 40.443488 
L 545.669458 40.211295 
L 547.14337 40.1667 
L 548.617282 40.531749 
L 550.091194 40.471185 
L 551.565106 39.92955 
L 553.039018 40.46087 
L 554.51293 40.178312 
L 555.986842 39.41112 
L 557.460754 39.688684 
L 558.934666 40.732618 
L 560.408578 40.718861 
L 561.88249 40.905824 
L 563.356402 41.464387 
L 564.830314 41.458133 
L 566.304226 42.466067 
L 567.778139 41.434998 
L 569.252051 41.523142 
L 572.199875 42.194206 
L 573.673787 42.666382 
L 575.147699 42.043043 
L 576.621611 42.095763 
L 578.095523 41.855175 
L 579.569435 41.74278 
L 581.043347 41.921969 
L 582.517259 41.516897 
L 585.465083 41.328425 
L 586.938995 41.483387 
L 588.412907 43.18969 
L 589.886819 43.453101 
L 592.834643 44.872965 
L 594.308555 44.424856 
L 595.782468 44.752008 
L 597.25638 44.823235 
L 598.730292 44.730403 
L 600.204204 45.49732 
L 601.678116 45.13488 
L 603.152028 45.265481 
L 604.62594 44.192292 
L 606.099852 43.495187 
L 607.573764 43.245392 
L 610.521588 43.4599 
L 611.9955 42.997573 
L 613.469412 43.837075 
L 614.943324 43.770891 
L 616.417236 43.900972 
L 617.891148 43.463352 
L 619.36506 43.911793 
L 620.838972 42.900495 
L 622.312884 43.91745 
L 623.786797 43.940974 
L 625.260709 43.852417 
L 626.734621 43.084331 
L 628.208533 43.111714 
L 629.682445 43.284256 
L 631.156357 44.261369 
L 632.630269 44.062223 
L 634.104181 44.173631 
L 635.578093 44.10053 
L 638.525917 44.798543 
L 639.999829 44.349025 
L 641.473741 45.254493 
L 642.947653 45.391276 
L 644.421565 45.076439 
L 645.895477 44.430851 
L 647.369389 44.68091 
L 648.843301 45.129026 
L 656.212862 45.028505 
L 657.686774 45.164903 
L 659.160686 44.766272 
L 660.634598 45.460354 
L 662.10851 45.454732 
L 663.582422 44.892192 
L 665.056334 44.899907 
L 666.530246 44.469894 
L 668.004158 44.687258 
L 669.47807 44.209023 
L 670.951982 44.396701 
L 672.425894 44.243789 
L 673.899806 44.65112 
L 675.373718 44.131284 
L 676.84763 43.799886 
L 679.795455 43.872805 
L 679.795455 43.872805 
" clip-path="url(#p301c570c04)" style="fill: none; stroke: #0000ff; stroke-width: 1.5; stroke-linecap: square"/>
   </g>
   <g id="line2d_19">
    <path d="M 91.704545 345.502286 
L 93.178458 345.867439 
L 94.65237 341.256826 
L 96.126282 326.581857 
L 97.600194 310.592832 
L 99.074106 299.325379 
L 106.443666 234.589423 
L 107.917578 254.877071 
L 109.39149 243.033821 
L 110.865402 233.55116 
L 112.339314 224.906322 
L 113.813226 217.121751 
L 115.287138 207.549461 
L 118.234962 184.890006 
L 119.708874 171.255275 
L 121.182787 159.443186 
L 125.604523 132.910808 
L 127.078435 126.797219 
L 128.552347 117.558493 
L 130.026259 109.685569 
L 131.500171 104.030012 
L 132.974083 100.269283 
L 134.447995 97.654013 
L 135.921907 93.824371 
L 137.395819 88.446232 
L 138.869731 83.731254 
L 140.343643 80.797579 
L 141.817555 81.519316 
L 143.291467 77.856464 
L 144.765379 73.402595 
L 146.239291 71.819694 
L 149.187116 65.950194 
L 150.661028 66.120217 
L 152.13494 65.74159 
L 153.608852 63.425259 
L 155.082764 62.293992 
L 156.556676 59.580063 
L 158.030588 58.171309 
L 159.5045 58.205033 
L 160.978412 55.488628 
L 162.452324 55.142346 
L 163.926236 54.366507 
L 165.400148 55.720601 
L 166.87406 54.495755 
L 168.347972 54.006498 
L 169.821884 53.938813 
L 171.295796 53.318249 
L 172.769708 52.100015 
L 174.24362 51.07526 
L 175.717532 50.751638 
L 178.665357 48.495202 
L 180.139269 48.950768 
L 181.613181 48.386488 
L 183.087093 47.509764 
L 184.561005 48.748141 
L 186.034917 47.501974 
L 190.456653 45.124169 
L 191.930565 44.020264 
L 193.404477 46.709724 
L 194.878389 47.596332 
L 196.352301 48.882276 
L 197.826213 48.210851 
L 199.300125 47.67806 
L 200.774037 45.045401 
L 202.247949 42.881475 
L 203.721861 43.831518 
L 205.195774 43.618297 
L 206.669686 43.053621 
L 208.143598 42.905215 
L 209.61751 42.04996 
L 211.091422 41.491705 
L 214.039246 38.468915 
L 215.513158 38.249464 
L 218.460982 38.480966 
L 219.934894 39.575977 
L 222.882718 39.687302 
L 224.35663 39.634289 
L 225.830542 39.868406 
L 227.304454 37.909215 
L 228.778366 36.929929 
L 230.252278 36.8468 
L 231.72619 37.035189 
L 233.200103 36.991706 
L 234.674015 35.185013 
L 236.147927 34.802939 
L 237.621839 33.552601 
L 240.569663 32.299376 
L 242.043575 31.925398 
L 243.517487 31.750565 
L 244.991399 31.792925 
L 246.465311 31.505043 
L 247.939223 31.47881 
L 249.413135 31.117047 
L 250.887047 30.128517 
L 252.360959 30.909408 
L 253.834871 30.086887 
L 256.782695 30.243968 
L 258.256607 30.889071 
L 259.730519 30.401511 
L 261.204432 31.846285 
L 262.678344 31.490125 
L 264.152256 32.586821 
L 265.626168 33.91556 
L 267.10008 34.593207 
L 268.573992 34.522399 
L 270.047904 35.639093 
L 272.995728 35.918753 
L 274.46964 36.503958 
L 275.943552 37.590725 
L 277.417464 38.50605 
L 278.891376 39.090448 
L 280.365288 38.215611 
L 281.8392 36.3682 
L 286.260936 35.801077 
L 287.734848 36.087755 
L 289.208761 35.451202 
L 290.682673 34.063401 
L 293.630497 34.606206 
L 295.104409 34.078193 
L 296.578321 32.649689 
L 298.052233 32.973293 
L 299.526145 32.229006 
L 301.000057 31.943638 
L 302.473969 31.433391 
L 303.947881 31.490105 
L 305.421793 31.662922 
L 306.895705 33.33243 
L 308.369617 33.842415 
L 309.843529 34.482284 
L 311.317441 35.609474 
L 312.791353 35.765145 
L 314.265265 36.498115 
L 315.739177 36.572945 
L 317.21309 35.677373 
L 320.160914 37.335875 
L 321.634826 36.817563 
L 323.108738 37.422762 
L 324.58265 38.876907 
L 326.056562 39.228571 
L 327.530474 40.044252 
L 329.004386 40.420149 
L 330.478298 40.441594 
L 331.95221 41.282135 
L 333.426122 41.736558 
L 334.900034 42.002299 
L 336.373946 42.876301 
L 337.847858 44.067546 
L 339.32177 43.805328 
L 340.795682 44.595797 
L 342.269594 43.994391 
L 345.217419 45.925288 
L 346.691331 46.819618 
L 348.165243 47.177122 
L 349.639155 47.81077 
L 351.113067 47.455583 
L 352.586979 46.869769 
L 354.060891 47.451994 
L 355.534803 46.518269 
L 357.008715 46.720605 
L 358.482627 47.575299 
L 361.430451 48.458551 
L 362.904363 47.493426 
L 364.378275 47.150522 
L 365.852187 47.332595 
L 367.326099 46.793269 
L 368.800011 47.446801 
L 371.747835 48.377588 
L 373.221748 47.261157 
L 374.69566 46.729233 
L 376.169572 45.989858 
L 377.643484 46.372318 
L 379.117396 46.110167 
L 380.591308 45.48059 
L 382.06522 45.752297 
L 383.539132 45.513911 
L 385.013044 44.559212 
L 386.486956 44.280439 
L 387.960868 44.425443 
L 389.43478 46.743151 
L 390.908692 47.446351 
L 392.382604 47.620251 
L 393.856516 48.426897 
L 395.330428 48.073085 
L 396.80434 47.955026 
L 398.278252 48.94395 
L 401.226077 48.697358 
L 402.699989 49.62499 
L 404.173901 48.258037 
L 405.647813 47.767884 
L 407.121725 48.71115 
L 408.595637 48.676181 
L 410.069549 47.441618 
L 411.543461 47.530401 
L 413.017373 47.230891 
L 414.491285 46.477598 
L 417.439109 46.356077 
L 418.913021 45.552416 
L 420.386933 45.465184 
L 421.860845 45.532502 
L 423.334757 45.355399 
L 424.808669 43.896227 
L 426.282581 44.195765 
L 427.756494 44.277695 
L 429.230406 44.493023 
L 430.704318 44.187276 
L 432.17823 44.434437 
L 433.652142 44.160496 
L 435.126054 44.399745 
L 436.599966 45.264412 
L 438.073878 44.286794 
L 439.54779 44.5976 
L 441.021702 43.81273 
L 442.495614 43.394416 
L 443.969526 41.19317 
L 445.443438 40.214955 
L 446.91735 39.440301 
L 448.391262 38.94507 
L 449.865174 38.884498 
L 451.339086 40.143038 
L 452.812998 40.143483 
L 454.28691 40.340888 
L 455.760823 41.191234 
L 457.234735 41.480823 
L 458.708647 42.291641 
L 460.182559 41.642292 
L 463.130383 42.122545 
L 464.604295 41.942185 
L 467.552119 40.708317 
L 469.026031 40.552278 
L 470.499943 40.989433 
L 471.973855 40.764037 
L 473.447767 40.995267 
L 474.921679 40.56549 
L 476.395591 41.383336 
L 477.869503 42.897186 
L 479.343415 42.816577 
L 480.817327 43.156102 
L 482.291239 42.163808 
L 483.765152 43.027208 
L 485.239064 43.358807 
L 488.186888 44.828645 
L 489.6608 46.546475 
L 491.134712 45.32266 
L 492.608624 45.455632 
L 494.082536 44.237441 
L 495.556448 44.642055 
L 497.03036 44.758562 
L 498.504272 44.292656 
L 499.978184 45.662883 
L 501.452096 45.020757 
L 504.39992 44.745071 
L 505.873832 44.801288 
L 507.347744 45.036564 
L 508.821656 42.567977 
L 510.295568 41.472499 
L 511.769481 41.687028 
L 513.243393 40.872744 
L 514.717305 42.831548 
L 516.191217 42.960808 
L 517.665129 42.65404 
L 519.139041 42.113793 
L 520.612953 42.081444 
L 522.086865 41.845708 
L 523.560777 42.066402 
L 527.982513 41.267229 
L 529.456425 40.484744 
L 530.930337 40.487885 
L 532.404249 41.806237 
L 533.878161 41.525607 
L 535.352073 42.793613 
L 536.825985 42.48327 
L 538.299897 43.292141 
L 539.77381 43.874035 
L 542.721634 42.940413 
L 544.195546 42.104952 
L 545.669458 41.990921 
L 548.617282 42.447622 
L 550.091194 42.828876 
L 553.039018 43.17008 
L 554.51293 43.774982 
L 555.986842 44.03676 
L 557.460754 43.603049 
L 558.934666 44.205331 
L 560.408578 44.379745 
L 561.88249 45.332942 
L 563.356402 45.358416 
L 566.304226 43.777327 
L 567.778139 43.308277 
L 570.725963 45.684715 
L 572.199875 44.953442 
L 573.673787 45.875601 
L 575.147699 46.087112 
L 576.621611 46.421948 
L 578.095523 45.831931 
L 581.043347 45.928848 
L 582.517259 46.512875 
L 583.991171 45.746424 
L 585.465083 46.521853 
L 586.938995 45.820312 
L 588.412907 46.195689 
L 589.886819 47.0829 
L 591.360731 47.525559 
L 592.834643 47.217063 
L 594.308555 46.568241 
L 595.782468 46.352579 
L 597.25638 44.923266 
L 598.730292 45.173303 
L 600.204204 46.753114 
L 601.678116 45.873135 
L 603.152028 45.414901 
L 604.62594 44.152975 
L 606.099852 43.774744 
L 607.573764 42.817367 
L 609.047676 44.47056 
L 610.521588 44.442094 
L 611.9955 44.909909 
L 613.469412 45.790826 
L 614.943324 45.077029 
L 616.417236 44.893367 
L 617.891148 45.840177 
L 619.36506 45.098022 
L 620.838972 44.017405 
L 625.260709 45.289882 
L 626.734621 45.265205 
L 628.208533 46.36803 
L 629.682445 45.661628 
L 631.156357 44.667257 
L 632.630269 45.776756 
L 634.104181 47.708737 
L 635.578093 47.15019 
L 637.052005 47.904645 
L 638.525917 47.77806 
L 639.999829 47.200113 
L 641.473741 45.608148 
L 642.947653 45.439069 
L 644.421565 47.134928 
L 645.895477 47.667596 
L 647.369389 49.281481 
L 648.843301 48.381326 
L 650.317213 47.971292 
L 651.791126 47.98599 
L 653.265038 46.255794 
L 654.73895 47.887582 
L 656.212862 47.878019 
L 657.686774 48.161883 
L 659.160686 47.063337 
L 660.634598 45.78647 
L 662.10851 46.689583 
L 663.582422 47.024551 
L 665.056334 47.485432 
L 666.530246 48.465628 
L 668.004158 49.698817 
L 670.951982 51.087866 
L 672.425894 50.758456 
L 673.899806 49.732552 
L 675.373718 49.562951 
L 678.321542 48.441309 
L 679.795455 47.276637 
L 679.795455 47.276637 
" clip-path="url(#p301c570c04)" style="fill: none; stroke: #008000; stroke-width: 1.5; stroke-linecap: square"/>
   </g>
   <g id="patch_3">
    <path d="M 62.3 390.04 
L 62.3 12.946263 
" style="fill: none; stroke: #000000; stroke-width: 0.8; stroke-linejoin: miter; stroke-linecap: square"/>
   </g>
   <g id="patch_4">
    <path d="M 709.2 390.04 
L 709.2 12.946263 
" style="fill: none; stroke: #000000; stroke-width: 0.8; stroke-linejoin: miter; stroke-linecap: square"/>
   </g>
   <g id="patch_5">
    <path d="M 62.3 390.04 
L 709.2 390.04 
" style="fill: none; stroke: #000000; stroke-width: 0.8; stroke-linejoin: miter; stroke-linecap: square"/>
   </g>
   <g id="patch_6">
    <path d="M 62.3 12.946263 
L 709.2 12.946263 
" style="fill: none; stroke: #000000; stroke-width: 0.8; stroke-linejoin: miter; stroke-linecap: square"/>
   </g>
   <g id="legend_1">
    <g id="patch_7">
     <path d="M 484.260938 385.04 
L 702.2 385.04 
Q 704.2 385.04 704.2 383.04 
L 704.2 354.68375 
Q 704.2 352.68375 702.2 352.68375 
L 484.260938 352.68375 
Q 482.260938 352.68375 482.260938 354.68375 
L 482.260938 383.04 
Q 482.260938 385.04 484.260938 385.04 
z
" style="fill: #ffffff; opacity: 0.8; stroke: #cccccc; stroke-linejoin: miter"/>
    </g>
    <g id="line2d_20">
     <path d="M 486.260938 360.782187 
L 496.260938 360.782187 
L 506.260938 360.782187 
" style="fill: none; stroke: #0000ff; stroke-width: 1.5; stroke-linecap: square"/>
    </g>
    <g id="text_20">
     <!-- ResNet Features + CIELAB histogram -->
     <g transform="translate(514.260938 364.282187) scale(0.1 -0.1)">
      <defs>
       <path id="DejaVuSans-4e" d="M 628 4666 
L 1478 4666 
L 3547 763 
L 3547 4666 
L 4159 4666 
L 4159 0 
L 3309 0 
L 1241 3903 
L 1241 0 
L 628 0 
L 628 4666 
z
" transform="scale(0.015625)"/>
       <path id="DejaVuSans-46" d="M 628 4666 
L 3309 4666 
L 3309 4134 
L 1259 4134 
L 1259 2759 
L 3109 2759 
L 3109 2228 
L 1259 2228 
L 1259 0 
L 628 0 
L 628 4666 
z
" transform="scale(0.015625)"/>
       <path id="DejaVuSans-2b" d="M 2944 4013 
L 2944 2272 
L 4684 2272 
L 4684 1741 
L 2944 1741 
L 2944 0 
L 2419 0 
L 2419 1741 
L 678 1741 
L 678 2272 
L 2419 2272 
L 2419 4013 
L 2944 4013 
z
" transform="scale(0.015625)"/>
       <path id="DejaVuSans-43" d="M 4122 4306 
L 4122 3641 
Q 3803 3938 3442 4084 
Q 3081 4231 2675 4231 
Q 1875 4231 1450 3742 
Q 1025 3253 1025 2328 
Q 1025 1406 1450 917 
Q 1875 428 2675 428 
Q 3081 428 3442 575 
Q 3803 722 4122 1019 
L 4122 359 
Q 3791 134 3420 21 
Q 3050 -91 2638 -91 
Q 1578 -91 968 557 
Q 359 1206 359 2328 
Q 359 3453 968 4101 
Q 1578 4750 2638 4750 
Q 3056 4750 3426 4639 
Q 3797 4528 4122 4306 
z
" transform="scale(0.015625)"/>
       <path id="DejaVuSans-49" d="M 628 4666 
L 1259 4666 
L 1259 0 
L 628 0 
L 628 4666 
z
" transform="scale(0.015625)"/>
       <path id="DejaVuSans-4c" d="M 628 4666 
L 1259 4666 
L 1259 531 
L 3531 531 
L 3531 0 
L 628 0 
L 628 4666 
z
" transform="scale(0.015625)"/>
       <path id="DejaVuSans-41" d="M 2188 4044 
L 1331 1722 
L 3047 1722 
L 2188 4044 
z
M 1831 4666 
L 2547 4666 
L 4325 0 
L 3669 0 
L 3244 1197 
L 1141 1197 
L 716 0 
L 50 0 
L 1831 4666 
z
" transform="scale(0.015625)"/>
       <path id="DejaVuSans-42" d="M 1259 2228 
L 1259 519 
L 2272 519 
Q 2781 519 3026 730 
Q 3272 941 3272 1375 
Q 3272 1813 3026 2020 
Q 2781 2228 2272 2228 
L 1259 2228 
z
M 1259 4147 
L 1259 2741 
L 2194 2741 
Q 2656 2741 2882 2914 
Q 3109 3088 3109 3444 
Q 3109 3797 2882 3972 
Q 2656 4147 2194 4147 
L 1259 4147 
z
M 628 4666 
L 2241 4666 
Q 2963 4666 3353 4366 
Q 3744 4066 3744 3513 
Q 3744 3084 3544 2831 
Q 3344 2578 2956 2516 
Q 3422 2416 3680 2098 
Q 3938 1781 3938 1306 
Q 3938 681 3513 340 
Q 3088 0 2303 0 
L 628 0 
L 628 4666 
z
" transform="scale(0.015625)"/>
       <path id="DejaVuSans-68" d="M 3513 2113 
L 3513 0 
L 2938 0 
L 2938 2094 
Q 2938 2591 2744 2837 
Q 2550 3084 2163 3084 
Q 1697 3084 1428 2787 
Q 1159 2491 1159 1978 
L 1159 0 
L 581 0 
L 581 4863 
L 1159 4863 
L 1159 2956 
Q 1366 3272 1645 3428 
Q 1925 3584 2291 3584 
Q 2894 3584 3203 3211 
Q 3513 2838 3513 2113 
z
" transform="scale(0.015625)"/>
       <path id="DejaVuSans-67" d="M 2906 1791 
Q 2906 2416 2648 2759 
Q 2391 3103 1925 3103 
Q 1463 3103 1205 2759 
Q 947 2416 947 1791 
Q 947 1169 1205 825 
Q 1463 481 1925 481 
Q 2391 481 2648 825 
Q 2906 1169 2906 1791 
z
M 3481 434 
Q 3481 -459 3084 -895 
Q 2688 -1331 1869 -1331 
Q 1566 -1331 1297 -1286 
Q 1028 -1241 775 -1147 
L 775 -588 
Q 1028 -725 1275 -790 
Q 1522 -856 1778 -856 
Q 2344 -856 2625 -561 
Q 2906 -266 2906 331 
L 2906 616 
Q 2728 306 2450 153 
Q 2172 0 1784 0 
Q 1141 0 747 490 
Q 353 981 353 1791 
Q 353 2603 747 3093 
Q 1141 3584 1784 3584 
Q 2172 3584 2450 3431 
Q 2728 3278 2906 2969 
L 2906 3500 
L 3481 3500 
L 3481 434 
z
" transform="scale(0.015625)"/>
       <path id="DejaVuSans-6d" d="M 3328 2828 
Q 3544 3216 3844 3400 
Q 4144 3584 4550 3584 
Q 5097 3584 5394 3201 
Q 5691 2819 5691 2113 
L 5691 0 
L 5113 0 
L 5113 2094 
Q 5113 2597 4934 2840 
Q 4756 3084 4391 3084 
Q 3944 3084 3684 2787 
Q 3425 2491 3425 1978 
L 3425 0 
L 2847 0 
L 2847 2094 
Q 2847 2600 2669 2842 
Q 2491 3084 2119 3084 
Q 1678 3084 1418 2786 
Q 1159 2488 1159 1978 
L 1159 0 
L 581 0 
L 581 3500 
L 1159 3500 
L 1159 2956 
Q 1356 3278 1631 3431 
Q 1906 3584 2284 3584 
Q 2666 3584 2933 3390 
Q 3200 3197 3328 2828 
z
" transform="scale(0.015625)"/>
      </defs>
      <use xlink:href="#DejaVuSans-52"/>
      <use xlink:href="#DejaVuSans-65" x="64.982422"/>
      <use xlink:href="#DejaVuSans-73" x="126.505859"/>
      <use xlink:href="#DejaVuSans-4e" x="178.605469"/>
      <use xlink:href="#DejaVuSans-65" x="253.410156"/>
      <use xlink:href="#DejaVuSans-74" x="314.933594"/>
      <use xlink:href="#DejaVuSans-20" x="354.142578"/>
      <use xlink:href="#DejaVuSans-46" x="385.929688"/>
      <use xlink:href="#DejaVuSans-65" x="437.949219"/>
      <use xlink:href="#DejaVuSans-61" x="499.472656"/>
      <use xlink:href="#DejaVuSans-74" x="560.751953"/>
      <use xlink:href="#DejaVuSans-75" x="599.960938"/>
      <use xlink:href="#DejaVuSans-72" x="663.339844"/>
      <use xlink:href="#DejaVuSans-65" x="702.203125"/>
      <use xlink:href="#DejaVuSans-73" x="763.726562"/>
      <use xlink:href="#DejaVuSans-20" x="815.826172"/>
      <use xlink:href="#DejaVuSans-2b" x="847.613281"/>
      <use xlink:href="#DejaVuSans-20" x="931.402344"/>
      <use xlink:href="#DejaVuSans-43" x="963.189453"/>
      <use xlink:href="#DejaVuSans-49" x="1033.013672"/>
      <use xlink:href="#DejaVuSans-45" x="1062.505859"/>
      <use xlink:href="#DejaVuSans-4c" x="1125.689453"/>
      <use xlink:href="#DejaVuSans-41" x="1183.652344"/>
      <use xlink:href="#DejaVuSans-42" x="1252.060547"/>
      <use xlink:href="#DejaVuSans-20" x="1320.664062"/>
      <use xlink:href="#DejaVuSans-68" x="1352.451172"/>
      <use xlink:href="#DejaVuSans-69" x="1415.830078"/>
      <use xlink:href="#DejaVuSans-73" x="1443.613281"/>
      <use xlink:href="#DejaVuSans-74" x="1495.712891"/>
      <use xlink:href="#DejaVuSans-6f" x="1534.921875"/>
      <use xlink:href="#DejaVuSans-67" x="1596.103516"/>
      <use xlink:href="#DejaVuSans-72" x="1659.580078"/>
      <use xlink:href="#DejaVuSans-61" x="1700.693359"/>
      <use xlink:href="#DejaVuSans-6d" x="1761.972656"/>
     </g>
    </g>
    <g id="line2d_21">
     <path d="M 486.260938 375.460312 
L 496.260938 375.460312 
L 506.260938 375.460312 
" style="fill: none; stroke: #008000; stroke-width: 1.5; stroke-linecap: square"/>
    </g>
    <g id="text_21">
     <!-- ResNet Features -->
     <g transform="translate(514.260938 378.960312) scale(0.1 -0.1)">
      <use xlink:href="#DejaVuSans-52"/>
      <use xlink:href="#DejaVuSans-65" x="64.982422"/>
      <use xlink:href="#DejaVuSans-73" x="126.505859"/>
      <use xlink:href="#DejaVuSans-4e" x="178.605469"/>
      <use xlink:href="#DejaVuSans-65" x="253.410156"/>
      <use xlink:href="#DejaVuSans-74" x="314.933594"/>
      <use xlink:href="#DejaVuSans-20" x="354.142578"/>
      <use xlink:href="#DejaVuSans-46" x="385.929688"/>
      <use xlink:href="#DejaVuSans-65" x="437.949219"/>
      <use xlink:href="#DejaVuSans-61" x="499.472656"/>
      <use xlink:href="#DejaVuSans-74" x="560.751953"/>
      <use xlink:href="#DejaVuSans-75" x="599.960938"/>
      <use xlink:href="#DejaVuSans-72" x="663.339844"/>
      <use xlink:href="#DejaVuSans-65" x="702.203125"/>
      <use xlink:href="#DejaVuSans-73" x="763.726562"/>
     </g>
    </g>
   </g>
  </g>
 </g>
 <defs>
  <clipPath id="p301c570c04">
   <rect x="62.3" y="12.946263" width="646.9" height="377.093737"/>
  </clipPath>
 </defs>
</svg>
